<?xml version="1.0" encoding="iso-8859-1"?>
<!-- Generator: Adobe Illustrator 21.1.0, SVG Export Plug-In . SVG Version: 6.00 Build 0)  -->
<svg version="1.1" id="Layer_1" xmlns="http://www.w3.org/2000/svg" xmlns:xlink="http://www.w3.org/1999/xlink" x="0px" y="0px"
	 viewBox="0 0 24 24" enable-background="new 0 0 24 24" xml:space="preserve">
<g>
	<path fill="#303C42" d="M22.0000095,8.00072h-0.277771l-3.4346313-5.9992237
		c-0.2661133-0.463845-0.6958008-0.795372-1.2099609-0.9330608c-0.1911449-0.0510668-0.385561-0.0737797-0.5780029-0.0673795
		c-0.322752,0.0107338-0.6399546,0.1020215-0.9268799,0.26903L0.9917083,9.7584486
		c-0.6379827,0.371315-0.9946554,1.0484533-0.9916992,1.7421875c0.0014286,0.335248,0.087439,0.6743727,0.2651367,0.9847317
		l2.7348633,4.7767477v3.7379799c0,1.1029758,0.8969727,1.9999046,2,1.9999046h17c1.1030273,0,2-0.8969288,2-1.9999046V10.0006237
		C24.0000095,8.8976498,23.1030369,8.00072,22.0000095,8.00072z"/>
	<path fill="#F3F3F3" d="M20.5695286,8h-5.5223999l2.0651245-5.8218384c0.1225586,0.0834351,0.230896,0.1862183,0.3071899,0.319397
		L20.5695286,8z"/>
	<polygon fill="#FAFBFB" points="16.065012,2.1398315 13.9862766,8 5.9986663,8 	"/>
	<path fill="#FAFBFB" d="M1.494638,10.6220703l1.5327148-0.8922729C3.0151458,9.8190308,3.0000091,9.9074707,3.0000091,10v1.2590942
		L1.1403289,11.008667C1.2243743,10.8555298,1.3338714,10.7157593,1.494638,10.6220703z"/>
	<polygon fill="#F3F3F3" points="1.1514373,12.0194092 3.0000091,12.2683105 3.0000091,15.2483521 	"/>
	<path opacity="0.1" fill="#010101" d="M2.0000091,13.5016479l1,1.7467041v-2.9800415l-1-0.1346436V13.5016479z
		 M2.0000091,11.1244507l1,0.1346436V10c0-0.0925293,0.0151367-0.1809692,0.0273438-0.2702026l-1.0273438,0.5980835V11.1244507z
		 M5.9986663,8h7.9876103l0.3547363-1H7.7164397L5.9986663,8z M19.9970188,7H15.401865l-0.3547363,1h5.5223999L19.9970188,7z"/>
	<path fill="#FAFBFB" d="M23.0000095,21c0,0.5512695-0.4487305,1-1,1h-17c-0.5512695,0-1-0.4487305-1-1V10
		c0-0.5512695,0.4487305-1,1-1h17c0.5512695,0,1,0.4487305,1,1V21z"/>
	<path fill="#303C42" d="M20.5000095,11h-4c-0.2763672,0-0.5,0.2236328-0.5,0.5v5c0,0.2763672,0.2236328,0.5,0.5,0.5h4
		c0.2763672,0,0.5-0.2236328,0.5-0.5v-5C21.0000095,11.2236328,20.7763767,11,20.5000095,11z"/>
	<linearGradient id="SVGID_1_" gradientUnits="userSpaceOnUse" x1="18.2538853" y1="13.7540588" x2="24.4566441" y2="19.9568176">
		<stop  offset="0" style="stop-color:#010101;stop-opacity:0.1"/>
		<stop  offset="1" style="stop-color:#010101;stop-opacity:0"/>
	</linearGradient>
	<path fill="url(#SVGID_1_)" d="M20.8568211,11.151123c0.0880737,0.0901489,0.1431885,0.2127686,0.1431885,0.348877v5
		c0,0.2763672-0.2236328,0.5-0.5,0.5h-4c-0.1365356,0-0.2596436-0.0552368-0.3498535-0.1437988L21.2973728,22h0.7026367
		c0.5512695,0,1-0.4487305,1-1v-7.7044067L20.8568211,11.151123z"/>
	<rect x="17.0000095" y="12" fill="#FFCB29" width="3" height="4"/>
	<path fill="#303C42" d="M14.5000095,19h-8c-0.2763672,0-0.5,0.2236328-0.5,0.5s0.2236328,0.5,0.5,0.5h8
		c0.2763672,0,0.5-0.2236328,0.5-0.5S14.7763767,19,14.5000095,19z"/>
	<path fill="#303C42" d="M6.5000091,17h4.0000005c0.2763672,0,0.5-0.2236328,0.5-0.5s-0.2236328-0.5-0.5-0.5H6.5000091
		c-0.2763672,0-0.5,0.2236328-0.5,0.5S6.2236419,17,6.5000091,17z"/>
	<linearGradient id="SVGID_2_" gradientUnits="userSpaceOnUse" x1="1.5592822" y1="7.7003164" x2="25.2558517" y2="18.7502079">
		<stop  offset="0" style="stop-color:#FFFFFF;stop-opacity:0.2"/>
		<stop  offset="1" style="stop-color:#FFFFFF;stop-opacity:0"/>
	</linearGradient>
	<path fill="url(#SVGID_2_)" d="M22.0000095,8.00072h-0.277771l-3.4346313-5.9992237
		c-0.2661133-0.463845-0.6958008-0.795372-1.2099609-0.9330608c-0.1911449-0.0510668-0.385561-0.0737797-0.5780029-0.0673795
		c-0.322752,0.0107338-0.6399546,0.1020215-0.9268799,0.26903L0.9917083,9.7584486
		c-0.6379827,0.371315-0.9946554,1.0484533-0.9916992,1.7421875c0.0014286,0.335248,0.087439,0.6743727,0.2651367,0.9847317
		l2.7348633,4.7767477v3.7379799c0,1.1029758,0.8969727,1.9999046,2,1.9999046h17c1.1030273,0,2-0.8969288,2-1.9999046V10.0006237
		C24.0000095,8.8976498,23.1030369,8.00072,22.0000095,8.00072z"/>
</g>
<g>
</g>
<g>
</g>
<g>
</g>
<g>
</g>
<g>
</g>
<g>
</g>
<g>
</g>
<g>
</g>
<g>
</g>
<g>
</g>
<g>
</g>
<g>
</g>
<g>
</g>
<g>
</g>
<g>
</g>
</svg>
